<svg width="167" height="77" viewBox="0 0 167 77" fill="none" xmlns="http://www.w3.org/2000/svg">
<g clip-path="url(#clip0_1_462)">
<path d="M41.603 42.0713L37.7791 30.52L37.7532 30.4609H35.4628L31.3349 41.9991L27.5305 30.52L27.5111 30.4609H24.2954L29.9438 46.4818L29.9697 46.5475H32.506L36.5369 35.2193L40.393 46.4818L40.4125 46.5475H42.9552L48.6295 30.5791L48.6683 30.4609H45.6338L41.603 42.0713Z" fill="#132D52"/>
<path d="M50.2471 46.5475H61.1298V44.06H53.2233V39.6167H60.6122V37.1358H53.2233V32.9222H61.1298V30.4609H50.2471V46.5475Z" fill="#132D52"/>
<path d="M66.2153 30.4609H63.1226V46.5475H73.6882V43.9025H66.2153V30.4609Z" fill="#132D52"/>
<path d="M78.3016 30.4609H75.2153V46.5475H85.781V43.9025H78.3016V30.4609Z" fill="#132D52"/>
<path d="M95.0204 37.5879L92.497 37.0891C91.6301 36.9119 91.0154 36.6624 90.6595 36.3474C90.3101 36.0324 90.1355 35.6189 90.1355 35.0807C90.1355 34.385 90.4137 33.8534 90.983 33.453C91.5589 33.0527 92.3741 32.8492 93.4158 32.8492C94.3475 32.8492 95.2016 32.9805 95.9521 33.2364C96.7026 33.4924 97.4079 33.8928 98.0355 34.4244L98.1325 34.5031L99.1095 32.1666L99.0642 32.1272C98.4107 31.5169 97.589 31.0443 96.6185 30.7227C95.6545 30.3945 94.5869 30.2305 93.4611 30.2305C92.1929 30.2305 91.0671 30.4405 90.116 30.8474C89.1585 31.2609 88.4015 31.845 87.8709 32.5932C87.3404 33.3414 87.0686 34.234 87.0686 35.2382C87.0686 36.4459 87.4439 37.4238 88.175 38.1457C88.9061 38.8611 90.019 39.3796 91.4877 39.6815L94.0305 40.2C94.9427 40.3904 95.5833 40.6332 95.9262 40.9154C96.2626 41.1911 96.4309 41.598 96.4309 42.1231C96.4309 42.7335 96.185 43.206 95.6803 43.5867C95.1757 43.9608 94.3281 44.1577 93.1699 44.1577C92.4712 44.1577 91.8047 44.092 91.1836 43.9673C90.5625 43.8426 89.9737 43.6523 89.4237 43.4095C88.8738 43.1666 88.3432 42.8582 87.8386 42.5037L87.7415 42.4381L86.7969 44.8271L86.771 44.8928L86.8228 44.9321C87.5927 45.5097 88.5309 45.9626 89.6114 46.2907C90.6919 46.6189 91.8824 46.783 93.1635 46.783C94.4445 46.783 95.5703 46.5795 96.5085 46.1792C97.4531 45.7722 98.1907 45.2012 98.7083 44.4793C99.226 43.7508 99.4912 42.8975 99.4912 41.9327C99.4912 40.7514 99.116 39.8062 98.3848 39.104C97.6537 38.4083 96.515 37.9029 95.0074 37.601L95.0204 37.5879Z" fill="#132D52"/>
<path d="M108.31 30.4609H101.173V46.5475H104.266V40.1417H108.316C109.481 40.1417 110.477 39.9448 111.286 39.5576C112.095 39.1704 112.716 38.5994 113.137 37.8708C113.557 37.1489 113.771 36.276 113.771 35.2849C113.771 33.7951 113.298 32.6006 112.367 31.7473C111.435 30.8941 110.076 30.4609 108.316 30.4609H108.31ZM104.26 32.9222H107.973C108.905 32.9222 109.61 33.1322 110.07 33.5391C110.529 33.946 110.762 34.5367 110.762 35.2849C110.762 36.0331 110.529 36.6238 110.07 37.0307C109.61 37.4442 108.905 37.6477 107.973 37.6477H104.26V32.909V32.9222Z" fill="#132D52"/>
<path d="M125.333 39.8779C125.184 39.7795 125.022 39.6942 124.848 39.6154C125.042 39.5498 125.21 39.4841 125.365 39.412C126.174 39.0378 126.802 38.4931 127.242 37.7843C127.675 37.082 127.895 36.2222 127.895 35.2312C127.895 33.7347 127.403 32.5534 126.433 31.7133C125.469 30.8732 124.084 30.4531 122.331 30.4531H115.304V46.5396H118.397V40.088H120.778C121.367 40.088 121.871 40.1667 122.285 40.3308C122.687 40.4883 122.991 40.8165 123.191 41.3219L125.533 46.4871L125.559 46.5396H128.963L126.582 41.4269C126.258 40.7377 125.844 40.2192 125.333 39.8779ZM118.39 32.9209H121.852C122.848 32.9209 123.612 33.1244 124.123 33.5313C124.628 33.9316 124.886 34.5355 124.886 35.3296C124.886 36.1238 124.628 36.7342 124.123 37.1411C123.612 37.5546 122.842 37.7646 121.852 37.7646H118.39V32.9143V32.9209Z" fill="#132D52"/>
<path d="M133.699 30.4609H130.606V46.5475H133.699V30.4609Z" fill="#132D52"/>
<path d="M146.755 41.4544L138.299 30.4938L138.273 30.4609H135.95V46.5475H138.836V35.5212L147.292 46.5081L147.318 46.5475H149.647V30.4609H146.755V41.4544Z" fill="#132D52"/>
<path d="M159.391 37.7454V40.0491H163.105V43.6129C162.646 43.7573 162.258 43.8623 161.882 43.928C161.268 44.0461 160.653 44.1052 160.045 44.1052C158.266 44.1052 156.946 43.6326 156.118 42.6941C155.289 41.7555 154.869 40.3641 154.869 38.5592C154.869 36.7543 155.309 35.3564 156.182 34.3916C157.049 33.4333 158.356 32.9411 160.064 32.9411C160.673 32.9411 161.21 32.987 161.662 33.0855C162.115 33.1839 162.562 33.3414 162.989 33.5646C163.416 33.7812 163.869 34.0831 164.348 34.4572L164.445 34.5294L165.486 32.101L165.441 32.0551C164.775 31.4644 163.992 31.0049 163.112 30.6965C162.238 30.388 161.203 30.2305 160.038 30.2305C158.292 30.2305 156.771 30.5718 155.522 31.2478C154.274 31.9238 153.303 32.8886 152.637 34.129C151.97 35.3629 151.634 36.8462 151.634 38.5395C151.634 40.2329 151.951 41.6899 152.565 42.9107C153.187 44.138 154.125 45.1028 155.348 45.7722C156.57 46.4417 158.104 46.7764 159.896 46.7764C160.588 46.7764 161.287 46.7239 161.967 46.632C162.652 46.5336 163.312 46.3957 163.94 46.212C164.561 46.0282 165.13 45.8182 165.635 45.5753L165.687 45.5491V37.7519H159.379L159.391 37.7454Z" fill="#132D52"/>
<path d="M24.4185 56.0691V51.1992H24.9814V56.0691H24.4185Z" fill="#03687F"/>
<path d="M26.7607 56.0691V51.1992H27.2007L30.2805 55.3406H30.1252V51.1992H30.6493V56.0691H30.2158L27.136 51.9277H27.2848V56.0691H26.7607Z" fill="#03687F"/>
<path d="M33.5868 56.0691V51.6849H31.8916V51.1992H35.8384V51.6849H34.1497V56.0691H33.5868Z" fill="#03687F"/>
<path d="M37.1128 56.0691V51.1992H40.1796V51.6718H37.6692V53.3651H40.0308V53.8442H37.6692V55.5966H40.1796V56.0757H37.1128V56.0691Z" fill="#03687F"/>
<path d="M41.7003 56.0691V51.1992H43.6608C44.1654 51.1992 44.5536 51.3174 44.8319 51.5602C45.1101 51.803 45.2459 52.1378 45.2459 52.5709C45.2459 52.8532 45.1812 53.096 45.0583 53.2995C44.9354 53.4964 44.7607 53.6539 44.5342 53.7589C44.3078 53.8639 44.049 53.9164 43.7449 53.9164L43.8678 53.8245H44.0037C44.1913 53.8245 44.3595 53.8705 44.5019 53.9623C44.6507 54.0542 44.7671 54.2117 44.8513 54.4218L45.5306 56.056H44.9095L44.256 54.448C44.1784 54.2446 44.0619 54.1067 43.9066 54.0411C43.7513 53.982 43.5572 53.9492 43.3308 53.9492H42.2567V56.056H41.6938L41.7003 56.0691ZM42.2632 53.516H43.5766C43.939 53.516 44.2172 53.4373 44.4048 53.2798C44.5925 53.1222 44.6895 52.8925 44.6895 52.5906C44.6895 52.2887 44.5925 52.0656 44.4048 51.908C44.2172 51.7505 43.939 51.6718 43.5766 51.6718H42.2632V53.516Z" fill="#03687F"/>
<path d="M46.9863 56.0691V51.1992H47.4263L50.5061 55.3406H50.3508V51.1992H50.8749V56.0691H50.4414L47.3616 51.9277H47.5104V56.0691H46.9863Z" fill="#03687F"/>
<path d="M52.1754 56.0691L54.2911 51.1992H54.7829L56.9374 56.0691H56.3486L55.7469 54.6843L55.9993 54.8287H53.0618L53.3336 54.6843L52.7448 56.0691H52.1689H52.1754ZM54.5305 51.8555L53.4306 54.4808L53.2689 54.3561H55.7987L55.6757 54.4808L54.5435 51.8555H54.5305Z" fill="#03687F"/>
<path d="M58.8846 56.0691V51.6849H57.1895V51.1992H61.1362V51.6849H59.4475V56.0691H58.8846Z" fill="#03687F"/>
<path d="M62.4111 56.0691V51.1992H62.974V56.0691H62.4111Z" fill="#03687F"/>
<path d="M64.5786 53.6347C64.5786 53.1162 64.6692 52.6764 64.8439 52.3023C65.0186 51.9348 65.2709 51.646 65.6009 51.4425C65.9309 51.2391 66.3255 51.1406 66.7914 51.1406C67.2572 51.1406 67.6325 51.2391 67.9625 51.4425C68.2925 51.646 68.5513 51.9348 68.726 52.3023C68.9071 52.6699 68.9977 53.1162 68.9977 53.6281C68.9977 54.14 68.9071 54.5863 68.726 54.9604C68.5448 55.3345 68.286 55.6233 67.9625 55.8268C67.6325 56.0302 67.2443 56.1353 66.7979 56.1353C66.3514 56.1353 65.9373 56.0302 65.6138 55.8268C65.2839 55.6233 65.038 55.3345 64.8568 54.9604C64.6821 54.5863 64.5916 54.1466 64.5916 53.6347H64.5786ZM65.1674 53.6347C65.1674 54.0547 65.2321 54.4091 65.3486 54.711C65.4715 55.0064 65.6527 55.2361 65.892 55.3936C66.1314 55.5511 66.4291 55.6299 66.7785 55.6299C67.2896 55.6299 67.6843 55.4527 67.969 55.1048C68.2536 54.7504 68.396 54.2647 68.396 53.6347C68.396 53.208 68.3313 52.8536 68.2019 52.5583C68.0725 52.2629 67.8913 52.0398 67.6519 51.8823C67.4125 51.7248 67.1214 51.646 66.7785 51.646C66.2479 51.646 65.8468 51.8232 65.575 52.1711C65.3033 52.5189 65.1674 53.0112 65.1674 53.6412V53.6347Z" fill="#03687F"/>
<path d="M70.5894 56.0691V51.1992H71.0293L74.1091 55.3406H73.9538V51.1992H74.4779V56.0691H74.0444L70.9646 51.9277H71.1134V56.0691H70.5894Z" fill="#03687F"/>
<path d="M75.778 56.0691L77.8937 51.1992H78.3854L80.54 56.0691H79.9512L79.3495 54.6843L79.6018 54.8287H76.6644L76.9361 54.6843L76.3473 56.0691H75.7715H75.778ZM78.1331 51.8555L77.0332 54.4808L76.8714 54.3561H79.4012L79.2783 54.4808L78.146 51.8555H78.1331Z" fill="#03687F"/>
<path d="M81.834 56.0691V51.1992H82.3969V55.5703H84.8232V56.0691H81.834Z" fill="#03687F"/>
<path d="M88.479 56.0691V51.1992H90.4006C90.9118 51.1992 91.3 51.3108 91.5782 51.5339C91.8564 51.7571 91.9923 52.0656 91.9923 52.4725C91.9923 52.7744 91.9017 53.0304 91.7205 53.2338C91.5394 53.4373 91.2935 53.5686 90.9765 53.6342V53.5357C91.3323 53.5751 91.6105 53.6998 91.8111 53.9033C92.0117 54.1067 92.1152 54.3824 92.1152 54.7302C92.1152 55.1634 91.9729 55.4916 91.6882 55.7279C91.4035 55.9576 91.0024 56.0757 90.4847 56.0757H88.479V56.0691ZM89.0354 53.3782H90.323C90.6918 53.3782 90.9765 53.306 91.1576 53.1551C91.3453 53.0041 91.4358 52.7941 91.4358 52.5184C91.4358 52.2428 91.3453 52.0196 91.1576 51.8752C90.97 51.7308 90.6918 51.6586 90.323 51.6586H89.0354V53.3782ZM89.0354 55.6097H90.4394C90.7824 55.6097 91.0606 55.5441 91.2612 55.4063C91.4617 55.2684 91.5652 55.0453 91.5652 54.7237C91.5652 54.5071 91.52 54.3364 91.4294 54.2052C91.3388 54.0739 91.2094 53.982 91.0412 53.923C90.8729 53.8639 90.6724 53.8376 90.4394 53.8376H89.0354V55.6097Z" fill="#03687F"/>
<path d="M93.6875 56.0691V51.1992H94.2504V56.0691H93.6875Z" fill="#03687F"/>
<path d="M96.0298 56.0691V51.1992H96.5927V55.5703H99.019V56.0691H96.0298Z" fill="#03687F"/>
<path d="M100.319 56.0691V51.1992H100.882V56.0691H100.319Z" fill="#03687F"/>
<path d="M102.662 56.0691V51.1992H103.102L106.181 55.3406H106.026V51.1992H106.55V56.0691H106.117L103.037 51.9277H103.186V56.0691H102.662Z" fill="#03687F"/>
<path d="M110.536 56.1346C110.012 56.1346 109.572 56.0361 109.216 55.8392C108.86 55.6423 108.595 55.3535 108.42 54.986C108.245 54.6119 108.155 54.1656 108.155 53.6471C108.155 53.1286 108.245 52.6888 108.433 52.3147C108.621 51.9406 108.886 51.6519 109.235 51.4484C109.585 51.2449 110.005 51.1465 110.503 51.1465C110.853 51.1465 111.157 51.199 111.416 51.304C111.675 51.409 111.901 51.56 112.108 51.7634L111.895 52.2097C111.746 52.0785 111.603 51.9735 111.461 51.8947C111.325 51.8159 111.176 51.7569 111.028 51.7175C110.879 51.6781 110.704 51.6584 110.503 51.6584C109.934 51.6584 109.501 51.8291 109.196 52.1835C108.892 52.5313 108.744 53.0236 108.744 53.6602C108.744 54.2968 108.892 54.7891 109.184 55.1304C109.475 55.4717 109.934 55.6423 110.549 55.6423C110.775 55.6423 110.995 55.6226 111.196 55.5767C111.403 55.5307 111.603 55.4717 111.797 55.3863L111.675 55.6948V53.9818H110.452V53.5355H112.16V55.7933C112.03 55.8655 111.882 55.9245 111.7 55.977C111.519 56.0295 111.332 56.0689 111.131 56.1017C110.93 56.1346 110.73 56.1477 110.529 56.1477L110.536 56.1346Z" fill="#03687F"/>
<path d="M115.776 56.136C115.343 56.136 114.987 56.0638 114.702 55.9129C114.418 55.7619 114.204 55.5388 114.068 55.2434C113.933 54.9481 113.861 54.5805 113.861 54.1474V51.207H114.418V54.1211C114.418 54.6199 114.528 55.0006 114.748 55.2566C114.968 55.5125 115.311 55.6372 115.783 55.6372C116.229 55.6372 116.566 55.5125 116.799 55.2566C117.032 55.0006 117.148 54.6265 117.148 54.1211V51.207H117.705V54.1474C117.705 54.5805 117.633 54.9415 117.485 55.2434C117.342 55.5388 117.122 55.7619 116.838 55.9129C116.553 56.0638 116.197 56.136 115.783 56.136H115.776Z" fill="#03687F"/>
<path d="M118.921 56.0691L121.037 51.1992H121.528L123.683 56.0691H123.094L122.493 54.6843L122.745 54.8287H119.807L120.079 54.6843L119.49 56.0691H118.915H118.921ZM121.283 51.8555L120.183 54.4808L120.021 54.3561H122.551L122.428 54.4808L121.296 51.8555H121.283Z" fill="#03687F"/>
<path d="M124.983 56.0691V51.1992H125.546V55.5703H127.973V56.0691H124.983Z" fill="#03687F"/>
<path d="M133.194 56.1346C132.806 56.1346 132.463 56.082 132.159 55.9836C131.855 55.8851 131.589 55.7342 131.363 55.5504L131.57 55.0976C131.725 55.2157 131.887 55.3141 132.049 55.3995C132.21 55.4782 132.385 55.5373 132.573 55.5767C132.76 55.6161 132.967 55.6357 133.2 55.6357C133.601 55.6357 133.906 55.557 134.1 55.406C134.294 55.2551 134.391 55.0516 134.391 54.7956C134.391 54.5791 134.326 54.415 134.184 54.2968C134.048 54.1787 133.808 54.0868 133.472 54.0212L132.754 53.8768C132.314 53.7849 131.984 53.634 131.77 53.4305C131.557 53.2205 131.447 52.9448 131.447 52.5904C131.447 52.3016 131.518 52.0456 131.667 51.8291C131.816 51.6125 132.023 51.4418 132.288 51.3237C132.553 51.2056 132.864 51.1465 133.22 51.1465C133.576 51.1465 133.873 51.199 134.151 51.304C134.43 51.409 134.675 51.56 134.876 51.7569L134.682 52.1966C134.468 51.9997 134.242 51.8619 134.009 51.7766C133.776 51.6912 133.511 51.6519 133.213 51.6519C132.838 51.6519 132.547 51.7372 132.333 51.8947C132.12 52.0588 132.01 52.2819 132.01 52.5576C132.01 52.7807 132.075 52.9579 132.217 53.0892C132.353 53.2139 132.579 53.3124 132.89 53.378L133.614 53.5224C134.08 53.6208 134.417 53.7652 134.637 53.9556C134.857 54.1459 134.967 54.4215 134.967 54.7694C134.967 55.0385 134.895 55.2748 134.753 55.4782C134.611 55.6882 134.404 55.8458 134.145 55.9639C133.88 56.082 133.569 56.1346 133.207 56.1346H133.194Z" fill="#03687F"/>
<path d="M165.234 56.1346C164.846 56.1346 164.503 56.082 164.199 55.9836C163.895 55.8851 163.629 55.7342 163.403 55.5504L163.61 55.0976C163.765 55.2157 163.927 55.3141 164.089 55.3995C164.25 55.4782 164.425 55.5373 164.613 55.5767C164.8 55.6161 165.007 55.6357 165.24 55.6357C165.641 55.6357 165.946 55.557 166.14 55.406C166.334 55.2551 166.431 55.0516 166.431 54.7956C166.431 54.5791 166.366 54.415 166.224 54.2968C166.088 54.1787 165.849 54.0868 165.512 54.0212L164.794 53.8768C164.354 53.7849 164.024 53.634 163.81 53.4305C163.597 53.2205 163.487 52.9448 163.487 52.5904C163.487 52.3016 163.558 52.0456 163.707 51.8291C163.856 51.6125 164.063 51.4418 164.328 51.3237C164.593 51.2056 164.904 51.1465 165.26 51.1465C165.616 51.1465 165.913 51.199 166.191 51.304C166.47 51.409 166.716 51.56 166.916 51.7569L166.722 52.1966C166.508 51.9997 166.282 51.8619 166.049 51.7766C165.816 51.6912 165.551 51.6519 165.253 51.6519C164.878 51.6519 164.587 51.7372 164.373 51.8947C164.16 52.0588 164.05 52.2819 164.05 52.5576C164.05 52.7807 164.115 52.9579 164.257 53.0892C164.393 53.2139 164.619 53.3124 164.93 53.378L165.654 53.5224C166.12 53.6208 166.457 53.7652 166.677 53.9556C166.897 54.1459 167.007 54.4215 167.007 54.7694C167.007 55.0385 166.936 55.2748 166.793 55.4782C166.651 55.6882 166.444 55.8458 166.185 55.9639C165.92 56.082 165.609 56.1346 165.247 56.1346H165.234Z" fill="#03687F"/>
<path d="M138.538 56.1353C138.059 56.1353 137.645 56.0368 137.315 55.8333C136.979 55.6299 136.72 55.3411 136.539 54.967C136.358 54.5929 136.267 54.1466 136.267 53.6347C136.267 53.1227 136.358 52.6764 136.539 52.3023C136.72 51.9348 136.979 51.646 137.315 51.4425C137.652 51.2391 138.059 51.1406 138.538 51.1406C138.881 51.1406 139.185 51.1931 139.45 51.2981C139.716 51.4032 139.955 51.5607 140.149 51.7641L139.936 52.217C139.716 52.0201 139.502 51.8823 139.289 51.7904C139.075 51.6985 138.823 51.6526 138.538 51.6526C137.988 51.6526 137.574 51.8232 137.283 52.1711C136.998 52.5189 136.856 53.0046 136.856 53.6281C136.856 54.0481 136.921 54.4026 137.05 54.7045C137.179 54.9998 137.367 55.2295 137.619 55.3805C137.872 55.5314 138.176 55.6102 138.545 55.6102C138.829 55.6102 139.082 55.5643 139.295 55.4724C139.509 55.3805 139.722 55.2361 139.942 55.0392L140.156 55.5052C139.955 55.7021 139.722 55.8596 139.457 55.9646C139.192 56.0696 138.887 56.1287 138.545 56.1287L138.538 56.1353Z" fill="#03687F"/>
<path d="M141.683 56.0691V51.1992H142.246V53.352H145.138V51.1992H145.694V56.0691H145.138V53.8442H142.246V56.0691H141.683Z" fill="#03687F"/>
<path d="M147.305 53.6347C147.305 53.1162 147.396 52.6764 147.57 52.3023C147.745 51.9348 147.997 51.646 148.327 51.4425C148.657 51.2391 149.052 51.1406 149.518 51.1406C149.984 51.1406 150.359 51.2391 150.689 51.4425C151.019 51.646 151.278 51.9348 151.453 52.3023C151.634 52.6699 151.724 53.1162 151.724 53.6281C151.724 54.14 151.634 54.5863 151.453 54.9604C151.271 55.3345 151.013 55.6233 150.689 55.8268C150.359 56.0302 149.971 56.1353 149.524 56.1353C149.078 56.1353 148.664 56.0302 148.34 55.8268C148.01 55.6233 147.765 55.3345 147.583 54.9604C147.409 54.5863 147.318 54.1466 147.318 53.6347H147.305ZM147.894 53.6347C147.894 54.0547 147.959 54.4091 148.075 54.711C148.198 55.0064 148.379 55.2361 148.619 55.3936C148.858 55.5511 149.156 55.6299 149.505 55.6299C150.016 55.6299 150.411 55.4527 150.696 55.1048C150.98 54.7504 151.123 54.2647 151.123 53.6347C151.123 53.208 151.058 52.8536 150.928 52.5583C150.799 52.2629 150.618 52.0398 150.378 51.8823C150.139 51.7248 149.848 51.646 149.505 51.646C148.974 51.646 148.573 51.8232 148.302 52.1711C148.03 52.5189 147.894 53.0112 147.894 53.6412V53.6347Z" fill="#03687F"/>
<path d="M153.135 53.6347C153.135 53.1162 153.225 52.6764 153.4 52.3023C153.575 51.9348 153.827 51.646 154.157 51.4425C154.487 51.2391 154.882 51.1406 155.348 51.1406C155.813 51.1406 156.189 51.2391 156.519 51.4425C156.849 51.646 157.107 51.9348 157.282 52.3023C157.463 52.6699 157.554 53.1162 157.554 53.6281C157.554 54.14 157.463 54.5863 157.282 54.9604C157.101 55.3345 156.842 55.6233 156.519 55.8268C156.189 56.0302 155.8 56.1353 155.354 56.1353C154.908 56.1353 154.493 56.0302 154.17 55.8268C153.84 55.6233 153.594 55.3345 153.413 54.9604C153.238 54.5863 153.148 54.1466 153.148 53.6347H153.135ZM153.73 53.6347C153.73 54.0547 153.795 54.4091 153.911 54.711C154.034 55.0064 154.215 55.2361 154.455 55.3936C154.694 55.5511 154.992 55.6299 155.341 55.6299C155.852 55.6299 156.247 55.4527 156.532 55.1048C156.816 54.7504 156.959 54.2647 156.959 53.6347C156.959 53.208 156.894 52.8536 156.764 52.5583C156.635 52.2629 156.454 52.0398 156.215 51.8823C155.975 51.7248 155.684 51.646 155.341 51.646C154.811 51.646 154.409 51.8232 154.138 52.1711C153.866 52.5189 153.73 53.0112 153.73 53.6412V53.6347Z" fill="#03687F"/>
<path d="M159.152 56.0691V51.1992H159.715V55.5703H162.141V56.0691H159.152Z" fill="#03687F"/>
<path fill-rule="evenodd" clip-rule="evenodd" d="M15.9033 10.4611C15.9874 9.72603 15.968 9.02376 15.8774 8.36087C16.7444 7.75049 17.3332 7.10073 17.3332 7.10073C16.6926 7.02197 16.1168 6.98259 15.6056 6.98259C15.3663 6.05717 15.0945 5.50586 15.0945 5.50586C14.9586 6.03092 14.7645 6.52316 14.551 6.9629C13.2893 6.99572 12.6035 7.14667 12.6035 7.14667C13.1017 7.39607 13.5417 7.75049 13.9169 8.05896C13.2441 9.00407 12.6294 9.54882 12.6294 9.54882C13.3864 9.65383 14.1758 9.38474 14.8616 9.01063C15.5539 9.81135 15.9097 10.4545 15.9097 10.4545L15.9033 10.4611Z" fill="#FDCE07"/>
<path fill-rule="evenodd" clip-rule="evenodd" d="M14.2275 2.5524C14.2793 2.18486 14.2922 1.80419 14.2405 1.4629C14.6804 1.16755 14.978 0.826265 14.978 0.826265C14.6481 0.793449 14.3699 0.754069 14.1046 0.767196C13.9946 0.301205 13.8717 0.00585938 13.8717 0.00585938C13.8005 0.268389 13.697 0.511229 13.5611 0.73438C12.9464 0.747506 12.5582 0.813139 12.5582 0.813139C12.8106 0.970657 13.0305 1.10848 13.2117 1.31195C12.8882 1.77137 12.5518 2.04047 12.5518 2.04047C12.9464 2.11266 13.3346 1.96171 13.7034 1.79106C14.0464 2.22424 14.234 2.55896 14.234 2.55896L14.2275 2.5524Z" fill="#009382"/>
<path fill-rule="evenodd" clip-rule="evenodd" d="M14.5254 4.59396C14.5254 4.59396 14.1502 4.26579 13.432 3.83918C13.4255 3.50446 13.4902 3.16317 13.5485 2.78906C13.5485 2.78906 13.225 3.02534 12.7915 3.48477C12.455 3.34694 12.1186 3.16973 11.7045 2.99252C11.7045 2.99252 11.8662 3.58978 12.1444 4.21329C11.8986 4.59396 11.6463 5.014 11.478 5.46687C11.478 5.46687 11.8792 5.19121 12.5715 4.94837C12.882 5.38811 13.2573 5.82785 13.7426 5.99849C13.7426 5.99849 13.5096 5.47999 13.4514 4.69897C13.7814 4.61364 14.1502 4.5677 14.519 4.59396H14.5254Z" fill="#BED230"/>
<path fill-rule="evenodd" clip-rule="evenodd" d="M8.79298 12.436C5.55145 9.39063 6.47668 5.91211 6.47668 5.91211C3.71394 9.17404 4.1345 12.9151 5.22795 15.0547C6.13376 16.8268 7.0137 18.0082 10.2099 19.7343C11.4069 20.3775 12.8562 21.0207 13.5356 22.294C14.1567 23.4557 14.1049 25.0899 13.6132 26.1925C15.7289 25.7462 18.6728 23.6526 19.5204 21.3489C20.4909 18.717 19.1646 15.652 15.5348 14.8447C12.5004 14.1687 10.3135 13.8602 8.79298 12.436Z" fill="#F1A71F"/>
<path fill-rule="evenodd" clip-rule="evenodd" d="M10.2745 26.377C4.86548 24.2965 7.07826 19.5315 7.07826 19.5315C3.17031 16.8209 3.39676 12.8633 3.39676 12.8633C2.31626 14.8716 1.61748 18.0351 3.27383 21.3036C5.66777 26.0226 10.2745 26.3704 10.2745 26.3704V26.377Z" fill="#EF5124"/>
<path fill-rule="evenodd" clip-rule="evenodd" d="M7.85449 6.39132C7.85449 9.1085 9.70494 11.7601 14.7969 12.8824C9.91199 10.093 9.5626 4.86865 10.1902 2.3418C9.08381 3.05719 7.85449 4.67831 7.85449 6.39788V6.39132Z" fill="#FDCE07"/>
<path fill-rule="evenodd" clip-rule="evenodd" d="M14.4543 47.3473C15.0496 34.8246 16.7641 30.1385 22.0373 26.4237C21.2932 26.3318 17.1718 25.8855 14.5966 28.071C12.2609 30.0531 11.0187 31.9762 11.0122 39.2614C11.0122 42.6152 11.0122 76.9935 11.0122 76.9935C11.0122 76.9935 13.6326 64.543 14.4543 47.3407V47.3473Z" fill="#00687F"/>
<path fill-rule="evenodd" clip-rule="evenodd" d="M10.0546 31.0579C7.58944 26.3783 2.50393 26.0435 0 26.4702C5.60311 31.4057 6.7095 33.9588 7.11065 47.3347C7.47945 59.4767 8.86405 63.3228 9.65987 66.8407C9.64693 63.9003 9.2652 47.0459 9.2652 38.9272C9.2652 32.6921 10.0546 31.0644 10.0546 31.0644V31.0579Z" fill="#132D52"/>
</g>
<defs>
<clipPath id="clip0_1_462">
<rect width="167" height="77" fill="white"/>
</clipPath>
</defs>
</svg>
